<svg id="gasket_insert" data-name="gasket insert" xmlns="http://www.w3.org/2000/svg" viewBox="0 0 999.9347 335.6059"><defs><style>.cls-1{fill:none;stroke:#000;stroke-miterlimit:11.3386;stroke-width:0.4018px;}</style></defs><polyline class="cls-1" points="968.06 25.717 967.681 25.717 970.184 25.717"/><polyline class="cls-1" points="947.097 309.893 972.805 309.893 972.805 25.717 969.98 25.717"/><path class="cls-1" d="M721.2142,323.8611" transform="translate(-12.5551 -13.9679)"/><line class="cls-1" x1="458.4012" y1="309.6891" x2="541.8104" y2="309.6891"/><line class="cls-1" x1="212.1054" y1="309.6891" x2="299.2708" y2="309.6891"/><path class="cls-1" d="M242,323.8611" transform="translate(-12.5551 -13.9679)"/><polyline class="cls-1" points="52.478 25.717 27.13 25.717 27.13 309.893 52.478 309.893"/><path class="cls-1" d="M82.87,39.685" transform="translate(-12.5551 -13.9679)"/><line class="cls-1" x1="299.0476" y1="25.5267" x2="211.8822" y2="25.5267"/><path class="cls-1" d="M322.4767,39.685" transform="translate(-12.5551 -13.9679)"/><line class="cls-1" x1="541.8105" y1="25.7172" x2="458.4011" y2="25.7172"/><path class="cls-1" d="M783.0458,39.685" transform="translate(-12.5551 -13.9679)"/><path class="cls-1" d="M924.5383,39.685h-43.147" transform="translate(-12.5551 -13.9679)"/><path class="cls-1" d="M924.267,14.1732" transform="translate(-12.5551 -13.9679)"/><polyline class="cls-1" points="911.712 0.205 0.201 0.205 0.201 335.405 999.734 335.405 999.734 0.205 968.06 0.205"/><path class="cls-1" d="M518.9,39.685" transform="translate(-12.5551 -13.9679)"/><path class="cls-1" d="M950.7826,331.6044" transform="translate(-12.5551 -13.9679)"/><path class="cls-1" d="M593.913,218.0435" transform="translate(-12.5551 -13.9679)"/><path class="cls-1" d="M562.0838,39.685" transform="translate(-12.5551 -13.9679)"/><polyline class="cls-1" points="541.81 25.656 541.81 12.9 700.941 12.9 700.941 25.656"/><path class="cls-1" d="M980.6149,39.5018" transform="translate(-12.5551 -13.9679)"/><line class="cls-1" x1="911.8553" y1="0.0013" x2="911.8553" y2="25.9213"/><path class="cls-1" d="M980.4255,39.508v0Z" transform="translate(-12.5551 -13.9679)"/><path class="cls-1" d="M923.913,39.685" transform="translate(-12.5551 -13.9679)"/><path class="cls-1" d="M980.6149,14.1732" transform="translate(-12.5551 -13.9679)"/><polyline class="cls-1" points="299.271 25.717 299.271 12.961 458.401 12.961 458.401 25.717"/><polyline class="cls-1" points="52.529 25.717 52.529 12.961 211.659 12.961 211.659 25.717"/><polyline class="cls-1" points="700.941 309.954 700.941 322.71 541.81 322.71 541.81 309.954"/><polyline class="cls-1" points="458.401 309.689 458.401 322.445 299.271 322.445 299.271 309.689"/><polyline class="cls-1" points="212.105 309.689 212.105 322.445 52.478 322.445 52.478 309.689"/><polyline class="cls-1" points="947.237 309.954 947.237 322.71 788.106 322.71 788.106 309.954"/><polyline class="cls-1" points="788.106 25.656 788.106 12.9 868.836 12.9 868.836 25.656"/><circle class="cls-1" cx="744.5235" cy="12.9613" r="5.1024"/><circle class="cls-1" cx="890.3458" cy="12.9613" r="5.1024"/><circle class="cls-1" cx="986.2692" cy="12.9613" r="5.1024"/><circle class="cls-1" cx="744.5235" cy="322.7115" r="5.1024"/><circle class="cls-1" cx="255.4649" cy="322.7115" r="5.1024"/><circle class="cls-1" cx="500.3741" cy="322.7115" r="5.1024"/><circle class="cls-1" cx="986.2692" cy="322.7115" r="5.1024"/><circle class="cls-1" cx="500.3741" cy="12.9002" r="5.1024"/><circle class="cls-1" cx="255.4649" cy="12.9613" r="5.1024"/><circle class="cls-1" cx="13.6654" cy="12.9613" r="5.1024"/><circle class="cls-1" cx="13.6654" cy="322.7102" r="5.1024"/><line class="cls-1" x1="700.9408" y1="309.9543" x2="788.1062" y2="309.9543"/><line class="cls-1" x1="700.9408" y1="25.7171" x2="788.1062" y2="25.7171"/></svg>