<svg id="gasket_insert" data-name="gasket insert" xmlns="http://www.w3.org/2000/svg" viewBox="0 0 999.9348 335.6046"><defs><style>.cls-1{fill:none;stroke:#000;stroke-miterlimit:11.3386;stroke-width:0.4018px;}</style></defs><path class="cls-1" d="M721.2153,323.8909" transform="translate(-12.5564 -13.9989)"/><path class="cls-1" d="M242.0012,323.8909" transform="translate(-12.5564 -13.9989)"/><path class="cls-1" d="M82.8712,39.7147" transform="translate(-12.5564 -13.9989)"/><line class="cls-1" x1="299.0475" y1="25.5254" x2="211.8821" y2="25.5254"/><path class="cls-1" d="M322.4779,39.7147" transform="translate(-12.5564 -13.9989)"/><path class="cls-1" d="M783.047,39.7147" transform="translate(-12.5564 -13.9989)"/><path class="cls-1" d="M924.2682,14.2029" transform="translate(-12.5564 -13.9989)"/><path class="cls-1" d="M518.9012,39.7147" transform="translate(-12.5564 -13.9989)"/><path class="cls-1" d="M950.7838,331.6341" transform="translate(-12.5564 -13.9989)"/><path class="cls-1" d="M593.9142,218.0732" transform="translate(-12.5564 -13.9989)"/><path class="cls-1" d="M562.085,39.7147" transform="translate(-12.5564 -13.9989)"/><path class="cls-1" d="M980.4267,39.5377" transform="translate(-12.5564 -13.9989)"/><polyline class="cls-1" points="211.659 25.716 211.659 12.96 52.529 12.96 52.529 25.716 52.478 25.716 27.13 25.716 27.13 309.892 52.478 309.892"/><circle class="cls-1" cx="744.5234" cy="12.96" r="5.1024"/><circle class="cls-1" cx="890.3457" cy="12.96" r="5.1024"/><circle class="cls-1" cx="986.2691" cy="12.96" r="5.1024"/><circle class="cls-1" cx="744.5234" cy="322.7102" r="5.1024"/><circle class="cls-1" cx="255.4648" cy="322.7102" r="5.1024"/><circle class="cls-1" cx="500.374" cy="322.7102" r="5.1024"/><circle class="cls-1" cx="986.2691" cy="322.7102" r="5.1024"/><circle class="cls-1" cx="500.374" cy="12.8989" r="5.1024"/><circle class="cls-1" cx="268.0212" cy="26.9589" r="5.1024" transform="translate(178.3075 271.047) rotate(-79.0993)"/><circle class="cls-1" cx="13.6653" cy="12.96" r="5.1024"/><circle class="cls-1" cx="13.6653" cy="322.7089" r="5.1024"/><polyline class="cls-1" points="969.98 25.716 972.805 25.716 972.805 309.892 947.237 309.953 947.237 309.953 947.237 322.709 788.106 322.709 788.106 309.953 700.941 309.953 700.941 322.709 541.81 322.709 541.81 309.953 541.81 309.688 458.401 309.688 458.401 322.444 299.271 322.444 299.271 309.688 212.105 309.688 212.105 322.444 52.478 322.444 52.478 309.688"/><polyline class="cls-1" points="299.271 25.716 299.271 12.96 458.401 12.96 458.401 25.716 541.81 25.716 541.81 25.655 541.81 12.899 700.941 12.899 700.941 25.655 700.941 25.716 788.106 25.716 788.106 25.655 788.106 12.899 868.836 12.899 868.836 25.655 868.836 25.716 911.855 25.716 911.855 25.716 911.855 0 911.855 25.716"/><polyline class="cls-1" points="911.712 0.204 0.201 0.204 0.201 335.404 999.734 335.404 999.734 0.204 968.06 0.204 968.06 25.716 967.87 25.716 970.184 25.716 968.06 25.716 968.06 0.204"/></svg>