<svg id="plate" xmlns="http://www.w3.org/2000/svg" viewBox="0 0 941.2625 306.3039"><defs><style>.cls-1{fill:none;stroke:#000;stroke-miterlimit:11.3386;stroke-width:0.4018px;}</style></defs><path class="cls-1" d="M66.1408,321.249" transform="translate(-41.8925 -28.6197)"/><polygon class="cls-1" points="369.714 241.165 369.714 254.488 257.391 254.488 257.391 245.332 238.257 245.332 238.257 254.488 235.919 254.488 235.919 262.425 238.257 262.425 238.257 280.198 243.147 280.198 243.147 283.6 252.501 283.6 252.501 280.198 257.391 280.198 257.391 267.527 369.714 267.527 369.714 280.85 409.399 280.85 409.399 267.527 521.722 267.527 521.722 280.198 526.612 280.198 526.612 283.6 535.966 283.6 535.966 280.198 540.856 280.198 540.856 262.425 543.194 262.425 543.194 254.488 540.856 254.488 540.856 245.332 521.722 245.332 521.722 254.488 409.399 254.488 409.399 241.165 369.714 241.165"/><polygon class="cls-1" points="821.965 241.165 821.965 280.85 861.65 280.85 861.65 241.165 821.965 241.165"/><polygon class="cls-1" points="767.965 241.165 767.965 280.85 807.65 280.85 807.65 241.165 767.965 241.165"/><polygon class="cls-1" points="713.965 241.165 713.965 280.85 753.65 280.85 753.65 241.165 713.965 241.165"/><polygon class="cls-1" points="572.213 241.165 572.213 280.85 611.898 280.85 611.898 241.165 572.213 241.165"/><polygon class="cls-1" points="167.213 241.165 167.213 280.85 206.898 280.85 206.898 241.165 167.213 241.165"/><polygon class="cls-1" points="18.714 241.165 18.714 280.85 58.399 280.85 58.399 241.165 18.714 241.165"/><polygon class="cls-1" points="45.714 187.165 45.714 200.488 41.391 200.488 41.391 191.332 22.257 191.332 22.257 200.488 19.919 200.488 19.919 208.425 22.257 208.425 22.257 226.198 27.147 226.198 27.147 229.599 36.501 229.599 36.501 226.198 41.391 226.198 41.391 213.527 45.714 213.527 45.714 226.85 85.399 226.85 85.399 213.527 89.722 213.527 89.722 226.198 94.612 226.198 94.612 229.599 103.966 229.599 103.966 226.198 108.856 226.198 108.856 208.425 111.194 208.425 111.194 200.488 108.856 200.488 108.856 191.332 89.722 191.332 89.722 200.488 85.399 200.488 85.399 187.165 45.714 187.165"/><polygon class="cls-1" points="767.965 187.165 767.965 226.85 807.65 226.85 807.65 187.165 767.965 187.165"/><polygon class="cls-1" points="693.714 187.165 693.714 226.85 733.399 226.85 733.399 187.165 693.714 187.165"/><polygon class="cls-1" points="619.463 187.165 619.463 226.85 659.148 226.85 659.148 187.165 619.463 187.165"/><polygon class="cls-1" points="565.463 187.165 565.463 226.85 605.148 226.85 605.148 187.165 565.463 187.165"/><polygon class="cls-1" points="511.463 187.165 511.463 226.85 551.148 226.85 551.148 187.165 511.463 187.165"/><polygon class="cls-1" points="457.463 187.165 457.463 226.85 497.148 226.85 497.148 187.165 457.463 187.165"/><polygon class="cls-1" points="403.463 187.165 403.463 226.85 443.148 226.85 443.148 187.165 403.463 187.165"/><polygon class="cls-1" points="349.46 187.165 349.46 226.85 389.148 226.85 389.148 187.165 349.46 187.165"/><polygon class="cls-1" points="295.463 187.165 295.463 226.85 335.148 226.85 335.148 187.165 295.463 187.165"/><polygon class="cls-1" points="241.463 187.165 241.463 226.85 281.148 226.85 281.148 187.165 241.463 187.165"/><polygon class="cls-1" points="187.463 187.165 187.463 226.85 227.148 226.85 227.148 187.165 187.463 187.165"/><polygon class="cls-1" points="133.463 187.165 133.463 226.85 173.148 226.85 173.148 187.165 133.463 187.165"/><polygon class="cls-1" points="889.463 146.663 889.463 186.348 929.148 186.348 929.148 146.663 889.463 146.663"/><polygon class="cls-1" points="835.463 146.663 835.463 186.348 875.148 186.348 875.148 146.663 835.463 146.663"/><polygon class="cls-1" points="734.212 133.165 734.212 146.488 729.89 146.488 729.89 137.332 710.756 137.332 710.756 146.488 708.417 146.488 708.417 154.425 710.756 154.425 710.756 172.198 715.643 172.198 715.643 175.6 724.997 175.6 724.997 172.198 729.89 172.198 729.89 159.527 734.212 159.527 734.212 172.85 773.898 172.85 773.898 159.527 778.22 159.527 778.22 172.198 783.11 172.198 783.11 175.6 792.465 175.6 792.465 172.198 797.354 172.198 797.354 154.425 799.693 154.425 799.693 146.488 797.354 146.488 797.354 137.332 778.22 137.332 778.22 146.488 773.898 146.488 773.898 133.165 734.212 133.165"/><polygon class="cls-1" points="646.463 133.165 646.463 172.85 686.148 172.85 686.148 133.165 646.463 133.165"/><polygon class="cls-1" points="592.463 133.165 592.463 172.85 632.148 172.85 632.148 133.165 592.463 133.165"/><polygon class="cls-1" points="538.463 133.165 538.463 172.85 578.148 172.85 578.148 133.165 538.463 133.165"/><polygon class="cls-1" points="484.463 133.165 484.463 172.85 524.148 172.85 524.148 133.165 484.463 133.165"/><polygon class="cls-1" points="430.463 133.165 430.463 172.85 470.148 172.85 470.148 133.165 430.463 133.165"/><polygon class="cls-1" points="376.463 133.165 376.463 172.85 416.148 172.85 416.148 133.165 376.463 133.165"/><polygon class="cls-1" points="322.463 133.165 322.463 172.85 362.148 172.85 362.148 133.165 322.463 133.165"/><polygon class="cls-1" points="268.463 133.165 268.463 172.85 308.148 172.85 308.148 133.165 268.463 133.165"/><polygon class="cls-1" points="214.463 133.165 214.463 172.85 254.148 172.85 254.148 133.165 214.463 133.165"/><polygon class="cls-1" points="160.463 133.165 160.463 172.85 200.148 172.85 200.148 133.165 160.463 133.165"/><polygon class="cls-1" points="106.463 133.165 106.463 172.85 146.148 172.85 146.148 133.165 106.463 133.165"/><polygon class="cls-1" points="32.213 133.165 32.213 172.85 71.898 172.85 71.898 133.165 32.213 133.165"/><polygon class="cls-1" points="889.463 92.663 889.463 132.348 929.148 132.348 929.148 92.663 889.463 92.663"/><polygon class="cls-1" points="835.463 92.663 835.463 132.348 875.148 132.348 875.148 92.663 835.463 92.663"/><polygon class="cls-1" points="754.463 79.165 754.463 118.85 794.148 118.85 794.148 79.165 754.463 79.165"/><polygon class="cls-1" points="686.965 79.165 686.965 118.85 726.647 118.85 726.647 79.165 686.965 79.165"/><polygon class="cls-1" points="632.965 79.165 632.965 118.85 672.65 118.85 672.65 79.165 632.965 79.165"/><polygon class="cls-1" points="578.965 79.165 578.965 118.85 618.65 118.85 618.65 79.165 578.965 79.165"/><polygon class="cls-1" points="524.965 79.165 524.965 118.85 564.65 118.85 564.65 79.165 524.965 79.165"/><polygon class="cls-1" points="470.965 79.165 470.965 118.85 510.65 118.85 510.65 79.165 470.965 79.165"/><polygon class="cls-1" points="416.965 79.165 416.965 118.85 456.65 118.85 456.65 79.165 416.965 79.165"/><polygon class="cls-1" points="362.965 79.165 362.965 118.85 402.65 118.85 402.65 79.165 362.965 79.165"/><polygon class="cls-1" points="308.965 79.165 308.965 118.85 348.65 118.85 348.65 79.165 308.965 79.165"/><polygon class="cls-1" points="254.965 79.165 254.965 118.85 294.65 118.85 294.65 79.165 254.965 79.165"/><polygon class="cls-1" points="200.965 79.165 200.965 118.85 240.65 118.85 240.65 79.165 200.965 79.165"/><polygon class="cls-1" points="146.965 79.165 146.965 118.85 186.65 118.85 186.65 79.165 146.965 79.165"/><polygon class="cls-1" points="92.965 79.165 92.965 118.85 132.65 118.85 132.65 79.165 92.965 79.165"/><polygon class="cls-1" points="25.463 79.165 25.463 118.85 65.148 118.85 65.148 79.165 25.463 79.165"/><polygon class="cls-1" points="740.965 25.162 740.965 38.485 736.642 38.485 736.642 29.329 717.508 29.329 717.508 38.485 715.169 38.485 715.169 46.425 717.508 46.425 717.508 64.195 722.395 64.195 722.395 67.597 731.752 67.597 731.752 64.195 736.642 64.195 736.642 51.527 740.965 51.527 740.965 64.85 780.65 64.85 780.65 51.527 784.973 51.527 784.973 64.195 789.862 64.195 789.862 67.597 799.217 67.597 799.217 64.195 804.106 64.195 804.106 46.425 806.445 46.425 806.445 38.485 804.106 38.485 804.106 29.329 784.973 29.329 784.973 38.485 780.65 38.485 780.65 25.162 740.965 25.162"/><polygon class="cls-1" points="659.965 25.162 659.965 64.85 699.65 64.85 699.65 25.162 659.965 25.162"/><polygon class="cls-1" points="605.965 25.162 605.965 64.85 645.65 64.85 645.65 25.162 605.965 25.162"/><polygon class="cls-1" points="551.965 25.162 551.965 64.85 591.65 64.85 591.65 25.162 551.965 25.162"/><polygon class="cls-1" points="497.965 25.162 497.965 64.85 537.65 64.85 537.65 25.162 497.965 25.162"/><polygon class="cls-1" points="443.965 25.162 443.965 64.85 483.65 64.85 483.65 25.162 443.965 25.162"/><polygon class="cls-1" points="389.965 25.162 389.965 64.85 429.65 64.85 429.65 25.162 389.965 25.162"/><polygon class="cls-1" points="335.962 25.162 335.962 64.85 375.65 64.85 375.65 25.162 335.962 25.162"/><polygon class="cls-1" points="281.962 25.162 281.962 64.85 321.647 64.85 321.647 25.162 281.962 25.162"/><polygon class="cls-1" points="227.965 25.162 227.965 64.85 267.65 64.85 267.65 25.162 227.965 25.162"/><polygon class="cls-1" points="173.965 25.162 173.965 64.85 213.65 64.85 213.65 25.162 173.965 25.162"/><polygon class="cls-1" points="119.965 25.162 119.965 64.85 159.65 64.85 159.65 25.162 119.965 25.162"/><polygon class="cls-1" points="65.965 25.162 65.965 64.85 105.65 64.85 105.65 25.162 65.965 25.162"/><polygon class="cls-1" points="11.962 25.162 11.962 64.85 51.65 64.85 51.65 25.162 11.962 25.162"/><polyline class="cls-1" points="181.3 292.415 181.3 305.609 25.463 305.609 25.463 292.415"/><polyline class="cls-1" points="271.215 292.616 181.106 292.616 271.791 292.616 271.791 306.103 427.53 306.103 427.53 292.616 513.438 292.616 427.53 292.616 514.204 292.616 514.204 305.614 669.356 305.614 669.356 292.616 760.389 292.616 669.356 292.616 761.313 292.616 761.313 305.418 915.487 305.418 915.487 292.616 915.707 292.616 941.062 292.616 941.062 13.375 837.813 13.375 838.029 13.375 838.029 0.201 760.388 0.201 760.388 13.375 669.552 13.375 669.552 0.201 514.595 0.201 514.595 13.375 427.139 13.375 427.139 0.201 272.182 0.201 272.182 13.375 180.453 13.375 180.306 13.388 180.306 0.214 25.463 0.214 25.463 13.388 25.298 13.388 0.201 13.388 0.201 292.629 25.463 292.629"/><polygon class="cls-1" points="835.463 25.163 835.463 64.848 929.148 64.848 929.148 25.163 835.463 25.163"/></svg>