<svg id="plate" xmlns="http://www.w3.org/2000/svg" viewBox="0 0 941.1158 306.3039"><defs><style>.cls-1{fill:none;stroke:#000;stroke-miterlimit:11.3386;stroke-width:0.4018px;}</style></defs><path class="cls-1" d="M66.2128,321.3935" transform="translate(-41.9645 -28.7774)"/><line class="cls-1" x1="271.6442" y1="292.6162" x2="180.9594" y2="292.6162"/><path class="cls-1" d="M313.0323,321.3935" transform="translate(-41.9645 -28.7774)"/><line class="cls-1" x1="514.0572" y1="292.6162" x2="427.3833" y2="292.6162"/><path class="cls-1" d="M555.2555,321.3935" transform="translate(-41.9645 -28.7774)"/><line class="cls-1" x1="761.1659" y1="292.6161" x2="669.2094" y2="292.6161"/><path class="cls-1" d="M802.2068,321.3935" transform="translate(-41.9645 -28.7774)"/><polyline class="cls-1" points="837.666 13.375 940.915 13.375 940.915 292.616 915.56 292.616"/><path class="cls-1" d="M879.63,42.1526" transform="translate(-41.9645 -28.7774)"/><line class="cls-1" x1="669.4051" y1="13.3752" x2="760.2411" y2="13.3752"/><line class="cls-1" x1="426.992" y1="13.3752" x2="514.4485" y2="13.3752"/><line class="cls-1" x1="180.3058" y1="13.3752" x2="272.0355" y2="13.3752"/><polyline class="cls-1" points="25.463 292.616 0.201 292.616 0.201 13.375 25.298 13.375"/><polygon class="cls-1" points="369.714 241.152 369.714 254.475 257.391 254.475 257.391 245.319 238.257 245.319 238.257 254.475 235.919 254.475 235.919 262.412 238.257 262.412 238.257 280.185 243.147 280.185 243.147 283.586 252.501 283.586 252.501 280.185 257.391 280.185 257.391 267.514 369.714 267.514 369.714 280.837 409.399 280.837 409.399 267.514 521.722 267.514 521.722 280.185 526.612 280.185 526.612 283.586 535.966 283.586 535.966 280.185 540.856 280.185 540.856 262.412 543.194 262.412 543.194 254.475 540.856 254.475 540.856 245.319 521.722 245.319 521.722 254.475 409.399 254.475 409.399 241.152 369.714 241.152"/><polygon class="cls-1" points="821.965 241.152 821.965 280.837 861.65 280.837 861.65 241.152 821.965 241.152"/><polygon class="cls-1" points="767.965 241.152 767.965 280.837 807.65 280.837 807.65 241.152 767.965 241.152"/><polygon class="cls-1" points="713.965 241.152 713.965 280.837 753.65 280.837 753.65 241.152 713.965 241.152"/><polygon class="cls-1" points="572.213 241.152 572.213 280.837 611.898 280.837 611.898 241.152 572.213 241.152"/><polygon class="cls-1" points="167.213 241.152 167.213 280.837 206.898 280.837 206.898 241.152 167.213 241.152"/><polygon class="cls-1" points="18.714 241.152 18.714 280.837 58.399 280.837 58.399 241.152 18.714 241.152"/><polygon class="cls-1" points="45.714 187.152 45.714 200.475 41.391 200.475 41.391 191.319 22.257 191.319 22.257 200.475 19.919 200.475 19.919 208.412 22.257 208.412 22.257 226.185 27.147 226.185 27.147 229.586 36.501 229.586 36.501 226.185 41.391 226.185 41.391 213.514 45.714 213.514 45.714 226.837 85.399 226.837 85.399 213.514 89.722 213.514 89.722 226.185 94.612 226.185 94.612 229.586 103.966 229.586 103.966 226.185 108.856 226.185 108.856 208.412 111.194 208.412 111.194 200.475 108.856 200.475 108.856 191.319 89.722 191.319 89.722 200.475 85.399 200.475 85.399 187.152 45.714 187.152"/><polygon class="cls-1" points="767.965 187.152 767.965 226.837 807.65 226.837 807.65 187.152 767.965 187.152"/><polygon class="cls-1" points="693.714 187.152 693.714 226.837 733.399 226.837 733.399 187.152 693.714 187.152"/><polygon class="cls-1" points="619.463 187.152 619.463 226.837 659.148 226.837 659.148 187.152 619.463 187.152"/><polygon class="cls-1" points="565.463 187.152 565.463 226.837 605.148 226.837 605.148 187.152 565.463 187.152"/><polygon class="cls-1" points="511.463 187.152 511.463 226.837 551.148 226.837 551.148 187.152 511.463 187.152"/><polygon class="cls-1" points="457.463 187.152 457.463 226.837 497.148 226.837 497.148 187.152 457.463 187.152"/><polygon class="cls-1" points="403.463 187.152 403.463 226.837 443.148 226.837 443.148 187.152 403.463 187.152"/><polygon class="cls-1" points="349.46 187.152 349.46 226.837 389.148 226.837 389.148 187.152 349.46 187.152"/><polygon class="cls-1" points="295.463 187.152 295.463 226.837 335.148 226.837 335.148 187.152 295.463 187.152"/><polygon class="cls-1" points="241.463 187.152 241.463 226.837 281.148 226.837 281.148 187.152 241.463 187.152"/><polygon class="cls-1" points="187.463 187.152 187.463 226.837 227.148 226.837 227.148 187.152 187.463 187.152"/><polygon class="cls-1" points="133.463 187.152 133.463 226.837 173.148 226.837 173.148 187.152 133.463 187.152"/><polygon class="cls-1" points="889.463 146.65 889.463 186.335 929.148 186.335 929.148 146.65 889.463 146.65"/><polygon class="cls-1" points="835.463 146.65 835.463 186.335 875.148 186.335 875.148 146.65 835.463 146.65"/><polygon class="cls-1" points="734.212 133.152 734.212 146.475 729.89 146.475 729.89 137.319 710.756 137.319 710.756 146.475 708.417 146.475 708.417 154.412 710.756 154.412 710.756 172.185 715.643 172.185 715.643 175.586 724.997 175.586 724.997 172.185 729.89 172.185 729.89 159.514 734.212 159.514 734.212 172.837 773.898 172.837 773.898 159.514 778.22 159.514 778.22 172.185 783.11 172.185 783.11 175.586 792.465 175.586 792.465 172.185 797.354 172.185 797.354 154.412 799.693 154.412 799.693 146.475 797.354 146.475 797.354 137.319 778.22 137.319 778.22 146.475 773.898 146.475 773.898 133.152 734.212 133.152"/><polygon class="cls-1" points="646.463 133.152 646.463 172.837 686.148 172.837 686.148 133.152 646.463 133.152"/><polygon class="cls-1" points="592.463 133.152 592.463 172.837 632.148 172.837 632.148 133.152 592.463 133.152"/><polygon class="cls-1" points="538.463 133.152 538.463 172.837 578.148 172.837 578.148 133.152 538.463 133.152"/><polygon class="cls-1" points="484.463 133.152 484.463 172.837 524.148 172.837 524.148 133.152 484.463 133.152"/><polygon class="cls-1" points="430.463 133.152 430.463 172.837 470.148 172.837 470.148 133.152 430.463 133.152"/><polygon class="cls-1" points="376.463 133.152 376.463 172.837 416.148 172.837 416.148 133.152 376.463 133.152"/><polygon class="cls-1" points="322.463 133.152 322.463 172.837 362.148 172.837 362.148 133.152 322.463 133.152"/><polygon class="cls-1" points="268.463 133.152 268.463 172.837 308.148 172.837 308.148 133.152 268.463 133.152"/><polygon class="cls-1" points="214.463 133.152 214.463 172.837 254.148 172.837 254.148 133.152 214.463 133.152"/><polygon class="cls-1" points="160.463 133.152 160.463 172.837 200.148 172.837 200.148 133.152 160.463 133.152"/><polygon class="cls-1" points="106.463 133.152 106.463 172.837 146.148 172.837 146.148 133.152 106.463 133.152"/><polygon class="cls-1" points="32.213 133.152 32.213 172.837 71.898 172.837 71.898 133.152 32.213 133.152"/><polygon class="cls-1" points="889.463 92.65 889.463 132.335 929.148 132.335 929.148 92.65 889.463 92.65"/><polygon class="cls-1" points="835.463 92.65 835.463 132.335 875.148 132.335 875.148 92.65 835.463 92.65"/><polygon class="cls-1" points="754.463 79.152 754.463 118.837 794.148 118.837 794.148 79.152 754.463 79.152"/><polygon class="cls-1" points="686.965 79.152 686.965 118.837 726.647 118.837 726.647 79.152 686.965 79.152"/><polygon class="cls-1" points="632.965 79.152 632.965 118.837 672.65 118.837 672.65 79.152 632.965 79.152"/><polygon class="cls-1" points="578.965 79.152 578.965 118.837 618.65 118.837 618.65 79.152 578.965 79.152"/><polygon class="cls-1" points="524.965 79.152 524.965 118.837 564.65 118.837 564.65 79.152 524.965 79.152"/><polygon class="cls-1" points="470.965 79.152 470.965 118.837 510.65 118.837 510.65 79.152 470.965 79.152"/><polygon class="cls-1" points="416.965 79.152 416.965 118.837 456.65 118.837 456.65 79.152 416.965 79.152"/><polygon class="cls-1" points="362.965 79.152 362.965 118.837 402.65 118.837 402.65 79.152 362.965 79.152"/><polygon class="cls-1" points="308.965 79.152 308.965 118.837 348.65 118.837 348.65 79.152 308.965 79.152"/><polygon class="cls-1" points="254.965 79.152 254.965 118.837 294.65 118.837 294.65 79.152 254.965 79.152"/><polygon class="cls-1" points="200.965 79.152 200.965 118.837 240.65 118.837 240.65 79.152 200.965 79.152"/><polygon class="cls-1" points="146.965 79.152 146.965 118.837 186.65 118.837 186.65 79.152 146.965 79.152"/><polygon class="cls-1" points="92.965 79.152 92.965 118.837 132.65 118.837 132.65 79.152 92.965 79.152"/><polygon class="cls-1" points="25.463 79.152 25.463 118.837 65.148 118.837 65.148 79.152 25.463 79.152"/><polygon class="cls-1" points="740.965 25.149 740.965 38.472 736.642 38.472 736.642 29.316 717.508 29.316 717.508 38.472 715.169 38.472 715.169 46.412 717.508 46.412 717.508 64.182 722.395 64.182 722.395 67.584 731.752 67.584 731.752 64.182 736.642 64.182 736.642 51.514 740.965 51.514 740.965 64.837 780.65 64.837 780.65 51.514 784.973 51.514 784.973 64.182 789.862 64.182 789.862 67.584 799.217 67.584 799.217 64.182 804.106 64.182 804.106 46.412 806.445 46.412 806.445 38.472 804.106 38.472 804.106 29.316 784.973 29.316 784.973 38.472 780.65 38.472 780.65 25.149 740.965 25.149"/><polygon class="cls-1" points="659.965 25.149 659.965 64.837 699.65 64.837 699.65 25.149 659.965 25.149"/><polygon class="cls-1" points="605.965 25.149 605.965 64.837 645.65 64.837 645.65 25.149 605.965 25.149"/><polygon class="cls-1" points="551.965 25.149 551.965 64.837 591.65 64.837 591.65 25.149 551.965 25.149"/><polygon class="cls-1" points="497.965 25.149 497.965 64.837 537.65 64.837 537.65 25.149 497.965 25.149"/><polygon class="cls-1" points="443.965 25.149 443.965 64.837 483.65 64.837 483.65 25.149 443.965 25.149"/><polygon class="cls-1" points="389.965 25.149 389.965 64.837 429.65 64.837 429.65 25.149 389.965 25.149"/><polygon class="cls-1" points="335.962 25.149 335.962 64.837 375.65 64.837 375.65 25.149 335.962 25.149"/><polygon class="cls-1" points="281.962 25.149 281.962 64.837 321.647 64.837 321.647 25.149 281.962 25.149"/><polygon class="cls-1" points="227.965 25.149 227.965 64.837 267.65 64.837 267.65 25.149 227.965 25.149"/><polygon class="cls-1" points="173.965 25.149 173.965 64.837 213.65 64.837 213.65 25.149 173.965 25.149"/><polygon class="cls-1" points="119.965 25.149 119.965 64.837 159.65 64.837 159.65 25.149 119.965 25.149"/><polygon class="cls-1" points="65.965 25.149 65.965 64.837 105.65 64.837 105.65 25.149 65.965 25.149"/><polygon class="cls-1" points="11.962 25.149 11.962 64.837 51.65 64.837 51.65 25.149 11.962 25.149"/><polyline class="cls-1" points="25.463 13.375 25.463 0.201 180.306 0.201 180.306 13.375"/><polyline class="cls-1" points="272.035 13.375 272.035 0.201 426.992 0.201 426.992 13.375"/><polyline class="cls-1" points="514.449 13.375 514.449 0.201 669.405 0.201 669.405 13.375"/><polyline class="cls-1" points="760.241 13.375 760.241 0.201 837.882 0.201 837.882 13.375"/><polyline class="cls-1" points="669.209 292.616 669.209 305.614 514.057 305.614 514.057 292.616"/><polyline class="cls-1" points="427.383 292.616 427.383 306.103 271.644 306.103 271.644 292.616"/><polyline class="cls-1" points="181.3 292.402 181.3 305.596 25.463 305.596 25.463 292.402"/><polyline class="cls-1" points="915.34 292.616 915.34 305.418 761.166 305.418 761.166 292.616"/><polygon class="cls-1" points="835.463 25.15 835.463 64.835 929.148 64.835 929.148 25.15 835.463 25.15"/></svg>