<svg id="top" xmlns="http://www.w3.org/2000/svg" viewBox="0 0 999.9347 335.6014"><defs><style>.cls-1{fill:none;stroke:#000;stroke-miterlimit:11.3386;stroke-width:0.4018px;}</style></defs><polygon class="cls-1" points="999.734 335.401 0.201 335.401 0.201 0.201 999.734 0.201 999.734 335.401"/><polygon class="cls-1" points="34.214 32.798 34.214 302.804 101.718 302.804 101.718 248.804 182.712 248.804 182.712 302.804 655.219 302.804 655.219 248.804 736.214 248.804 736.214 302.804 898.219 302.804 898.219 248.798 844.219 248.798 844.219 32.798 34.214 32.798"/><polygon class="cls-1" points="857.712 100.296 857.712 208.302 965.718 208.302 965.718 100.296 857.712 100.296"/><circle class="cls-1" cx="13.664" cy="12.9596" r="3.4016"/><circle class="cls-1" cx="255.4621" cy="12.9596" r="3.4016"/><circle class="cls-1" cx="500.3727" cy="12.9596" r="3.4016"/><circle class="cls-1" cx="744.5207" cy="12.9596" r="3.4016"/><circle class="cls-1" cx="890.3434" cy="12.9596" r="3.4016"/><circle class="cls-1" cx="986.2678" cy="12.9596" r="3.4016"/><circle class="cls-1" cx="986.2678" cy="322.7098" r="3.4016"/><circle class="cls-1" cx="744.5207" cy="322.7098" r="3.4016"/><circle class="cls-1" cx="500.3727" cy="322.7098" r="3.4016"/><circle class="cls-1" cx="255.4621" cy="322.7098" r="3.4016"/><circle class="cls-1" cx="13.664" cy="322.7098" r="3.4016"/></svg>