<svg id="bottom_foot" data-name="bottom foot" xmlns="http://www.w3.org/2000/svg" viewBox="0 0 784.1254 79.7721"><defs><style>.cls-1{fill:none;stroke:#000;stroke-linecap:round;stroke-linejoin:round;stroke-width:0.402px;}</style></defs><g id="CIRCLE"><circle class="cls-1" cx="392.0627" cy="39.8861" r="5.1024"/></g><g id="CIRCLE-2" data-name="CIRCLE"><circle class="cls-1" cx="744.2393" cy="39.8861" r="4.8189"/></g><g id="CIRCLE-3" data-name="CIRCLE"><circle class="cls-1" cx="39.8861" cy="39.8861" r="4.8189"/></g><g id="ARC"><path class="cls-1" d="M779.5988,105.3319a6.2357,6.2357,0,0,0-4.2193-1.6441" transform="translate(-120.8663 -36.2231)"/></g><g id="LINE"><line class="cls-1" x1="654.1503" y1="67.4647" x2="654.5132" y2="67.4647"/></g><g id="ARC-2" data-name="ARC"><path class="cls-1" d="M775.0166,103.6878a6.2361,6.2361,0,0,0-4.2194,1.6441" transform="translate(-120.8663 -36.2231)"/></g><g id="ARC-3" data-name="ARC"><path class="cls-1" d="M743.947,115.7942a39.6849,39.6849,0,0,0,26.85-10.4623" transform="translate(-120.8663 -36.2231)"/></g><g id="LINE-2" data-name="LINE"><line class="cls-1" x1="423.3779" y1="79.5711" x2="623.0807" y2="79.5711"/></g><g id="ARC-4" data-name="ARC"><path class="cls-1" d="M517.394,105.3319a39.6849,39.6849,0,0,0,26.85,10.4623" transform="translate(-120.8663 -36.2231)"/></g><g id="ARC-5" data-name="ARC"><path class="cls-1" d="M517.394,105.3319a6.2361,6.2361,0,0,0-4.2194-1.6441" transform="translate(-120.8663 -36.2231)"/></g><g id="LINE-3" data-name="LINE"><line class="cls-1" x1="392.0627" y1="67.4647" x2="392.3083" y2="67.4647"/></g><g id="ARC-6" data-name="ARC"><path class="cls-1" d="M512.929,103.6878a6.2357,6.2357,0,0,0-4.2193,1.6441" transform="translate(-120.8663 -36.2231)"/></g><g id="ARC-7" data-name="ARC"><path class="cls-1" d="M481.8594,115.7942a39.6854,39.6854,0,0,0,26.85-10.4623" transform="translate(-120.8663 -36.2231)"/></g><g id="LINE-4" data-name="LINE"><line class="cls-1" x1="161.0447" y1="79.5711" x2="360.9931" y2="79.5711"/></g><g id="ARC-8" data-name="ARC"><path class="cls-1" d="M255.0607,105.3319a39.6854,39.6854,0,0,0,26.85,10.4623" transform="translate(-120.8663 -36.2231)"/></g><g id="ARC-9" data-name="ARC"><path class="cls-1" d="M255.0607,105.3319a6.2362,6.2362,0,0,0-8.4386,0" transform="translate(-120.8663 -36.2231)"/></g><g id="ARC-10" data-name="ARC"><path class="cls-1" d="M219.7718,115.7942a39.6852,39.6852,0,0,0,26.85-10.4623" transform="translate(-120.8663 -36.2231)"/></g><g id="LINE-5" data-name="LINE"><line class="cls-1" x1="39.8861" y1="79.5711" x2="98.9055" y2="79.5711"/></g><g id="ARC-11" data-name="ARC"><path class="cls-1" d="M160.7524,36.4241a39.6851,39.6851,0,1,0,0,79.37" transform="translate(-120.8663 -36.2231)"/></g><g id="LINE-6" data-name="LINE"><line class="cls-1" x1="360.9553" y1="0.201" x2="39.8861" y2="0.201"/></g><g id="ARC-12" data-name="ARC"><path class="cls-1" d="M508.6718,46.8864a39.6849,39.6849,0,0,0-26.85-10.4623" transform="translate(-120.8663 -36.2231)"/></g><g id="ARC-13" data-name="ARC"><path class="cls-1" d="M508.6718,46.8864a6.2361,6.2361,0,0,0,4.2194,1.6441" transform="translate(-120.8663 -36.2231)"/></g><g id="LINE-7" data-name="LINE"><line class="cls-1" x1="392.0627" y1="12.3074" x2="392.0249" y2="12.3074"/></g><g id="ARC-14" data-name="ARC"><path class="cls-1" d="M512.929,48.5305a6.2359,6.2359,0,0,0,4.2193-1.6441" transform="translate(-120.8663 -36.2231)"/></g><g id="ARC-15" data-name="ARC"><path class="cls-1" d="M543.9986,36.4241a39.6852,39.6852,0,0,0-26.85,10.4623" transform="translate(-120.8663 -36.2231)"/></g><g id="LINE-8" data-name="LINE"><line class="cls-1" x1="744.2393" y1="0.201" x2="423.1323" y2="0.201"/></g><g id="ARC-16" data-name="ARC"><path class="cls-1" d="M865.1056,115.7942a39.6851,39.6851,0,1,0,0-79.37" transform="translate(-120.8663 -36.2231)"/></g><g id="LINE-9" data-name="LINE"><line class="cls-1" x1="685.5828" y1="79.5711" x2="744.2393" y2="79.5711"/></g><g id="ARC-17" data-name="ARC"><path class="cls-1" d="M779.5988,105.3319a39.6854,39.6854,0,0,0,26.85,10.4623" transform="translate(-120.8663 -36.2231)"/></g></svg>