<svg id="middle_foot" data-name="middle foot" xmlns="http://www.w3.org/2000/svg" viewBox="0 0 772.7868 68.4335"><defs><style>.cls-1{fill:none;stroke:#000;stroke-linecap:round;stroke-linejoin:round;stroke-width:0.402px;}</style></defs><g id="CIRCLE"><circle class="cls-1" cx="738.57" cy="34.2168" r="4.8189"/></g><g id="CIRCLE-2" data-name="CIRCLE"><circle class="cls-1" cx="386.3934" cy="34.2168" r="5.1024"/></g><g id="CIRCLE-3" data-name="CIRCLE"><circle class="cls-1" cx="34.2168" cy="34.2168" r="4.8189"/></g><g id="LINE"><line class="cls-1" x1="355.286" y1="0.201" x2="34.2168" y2="0.201"/></g><g id="ARC"><path class="cls-1" d="M504.8361,51.0611a34.0158,34.0158,0,0,0-23.0145-8.9677" transform="translate(-126.5356 -41.8924)"/></g><g id="ARC-2" data-name="ARC"><path class="cls-1" d="M504.8361,51.0611A11.9052,11.9052,0,0,0,512.8912,54.2" transform="translate(-126.5356 -41.8924)"/></g><g id="LINE-2" data-name="LINE"><line class="cls-1" x1="386.3934" y1="12.3074" x2="386.3556" y2="12.3074"/></g><g id="ARC-3" data-name="ARC"><path class="cls-1" d="M512.929,54.2a11.9054,11.9054,0,0,0,8.0551-3.1387" transform="translate(-126.5356 -41.8924)"/></g><g id="ARC-4" data-name="ARC"><path class="cls-1" d="M543.9986,42.0934a34.0156,34.0156,0,0,0-23.0145,8.9677" transform="translate(-126.5356 -41.8924)"/></g><g id="LINE-3" data-name="LINE"><line class="cls-1" x1="738.57" y1="0.201" x2="417.463" y2="0.201"/></g><g id="ARC-5" data-name="ARC"><path class="cls-1" d="M865.1056,110.1249a34.0158,34.0158,0,1,0,0-68.0315" transform="translate(-126.5356 -41.8924)"/></g><g id="LINE-4" data-name="LINE"><line class="cls-1" x1="679.9135" y1="68.2325" x2="738.57" y2="68.2325"/></g><g id="ARC-6" data-name="ARC"><path class="cls-1" d="M783.4346,101.1572a34.0158,34.0158,0,0,0,23.0145,8.9677" transform="translate(-126.5356 -41.8924)"/></g><g id="ARC-7" data-name="ARC"><path class="cls-1" d="M783.4346,101.1572a11.9052,11.9052,0,0,0-8.0551-3.1387" transform="translate(-126.5356 -41.8924)"/></g><g id="LINE-5" data-name="LINE"><line class="cls-1" x1="648.481" y1="56.1261" x2="648.8439" y2="56.1261"/></g><g id="ARC-8" data-name="ARC"><path class="cls-1" d="M775.0166,98.0185a11.9052,11.9052,0,0,0-8.0551,3.1387" transform="translate(-126.5356 -41.8924)"/></g><g id="ARC-9" data-name="ARC"><path class="cls-1" d="M743.947,110.1249a34.0158,34.0158,0,0,0,23.0145-8.9677" transform="translate(-126.5356 -41.8924)"/></g><g id="LINE-6" data-name="LINE"><line class="cls-1" x1="417.7086" y1="68.2325" x2="617.4114" y2="68.2325"/></g><g id="ARC-10" data-name="ARC"><path class="cls-1" d="M521.23,101.1572a34.0158,34.0158,0,0,0,23.0145,8.9677" transform="translate(-126.5356 -41.8924)"/></g><g id="ARC-11" data-name="ARC"><path class="cls-1" d="M521.23,101.1572a11.9052,11.9052,0,0,0-8.0551-3.1387" transform="translate(-126.5356 -41.8924)"/></g><g id="LINE-7" data-name="LINE"><line class="cls-1" x1="386.3934" y1="56.1261" x2="386.639" y2="56.1261"/></g><g id="ARC-12" data-name="ARC"><path class="cls-1" d="M512.929,98.0185a11.9052,11.9052,0,0,0-8.0551,3.1387" transform="translate(-126.5356 -41.8924)"/></g><g id="ARC-13" data-name="ARC"><path class="cls-1" d="M481.8594,110.1249a34.0158,34.0158,0,0,0,23.0145-8.9677" transform="translate(-126.5356 -41.8924)"/></g><g id="LINE-8" data-name="LINE"><line class="cls-1" x1="155.3754" y1="68.2325" x2="355.3238" y2="68.2325"/></g><g id="ARC-14" data-name="ARC"><path class="cls-1" d="M258.8965,101.1572a34.0158,34.0158,0,0,0,23.0145,8.9677" transform="translate(-126.5356 -41.8924)"/></g><g id="ARC-15" data-name="ARC"><path class="cls-1" d="M258.8965,101.1572a11.9056,11.9056,0,0,0-16.11,0" transform="translate(-126.5356 -41.8924)"/></g><g id="ARC-16" data-name="ARC"><path class="cls-1" d="M219.7718,110.1249a34.0156,34.0156,0,0,0,23.0145-8.9677" transform="translate(-126.5356 -41.8924)"/></g><g id="LINE-9" data-name="LINE"><line class="cls-1" x1="34.2168" y1="68.2325" x2="93.2362" y2="68.2325"/></g><g id="ARC-17" data-name="ARC"><path class="cls-1" d="M160.7524,42.0934a34.0158,34.0158,0,1,0,0,68.0315" transform="translate(-126.5356 -41.8924)"/></g></svg>