<svg id="top_foot" data-name="top foot" xmlns="http://www.w3.org/2000/svg" viewBox="0 0 761.4482 57.0949"><defs><style>.cls-1{fill:none;stroke:#000;stroke-linecap:round;stroke-linejoin:round;stroke-width:0.402px;}</style></defs><g id="CIRCLE"><circle class="cls-1" cx="28.5475" cy="28.5475" r="3.1181"/></g><g id="CIRCLE-2" data-name="CIRCLE"><circle class="cls-1" cx="732.9007" cy="28.5475" r="3.1181"/></g><g id="CIRCLE-3" data-name="CIRCLE"><circle class="cls-1" cx="380.7241" cy="28.5475" r="3.4016"/></g><g id="ARC"><path class="cls-1" d="M787.27,96.9825A17.5745,17.5745,0,0,0,775.38,92.3492" transform="translate(-132.2049 -47.5617)"/></g><g id="LINE"><line class="cls-1" x1="642.8117" y1="44.7875" x2="643.1746" y2="44.7875"/></g><g id="ARC-2" data-name="ARC"><path class="cls-1" d="M775.0166,92.3492a17.5748,17.5748,0,0,0-11.8909,4.6333" transform="translate(-132.2049 -47.5617)"/></g><g id="ARC-3" data-name="ARC"><path class="cls-1" d="M743.947,104.4556a28.3463,28.3463,0,0,0,19.1787-7.4731" transform="translate(-132.2049 -47.5617)"/></g><g id="LINE-2" data-name="LINE"><line class="cls-1" x1="412.0394" y1="56.8939" x2="611.7421" y2="56.8939"/></g><g id="ARC-4" data-name="ARC"><path class="cls-1" d="M525.0655,96.9825a28.3463,28.3463,0,0,0,19.1787,7.4731" transform="translate(-132.2049 -47.5617)"/></g><g id="ARC-5" data-name="ARC"><path class="cls-1" d="M525.0655,96.9825a17.5748,17.5748,0,0,0-11.8909-4.6333" transform="translate(-132.2049 -47.5617)"/></g><g id="LINE-3" data-name="LINE"><line class="cls-1" x1="380.7241" y1="44.7875" x2="380.9698" y2="44.7875"/></g><g id="ARC-6" data-name="ARC"><path class="cls-1" d="M512.929,92.3492a17.5748,17.5748,0,0,0-11.8909,4.6333" transform="translate(-132.2049 -47.5617)"/></g><g id="ARC-7" data-name="ARC"><path class="cls-1" d="M481.8594,104.4556a28.3463,28.3463,0,0,0,19.1787-7.4731" transform="translate(-132.2049 -47.5617)"/></g><g id="LINE-4" data-name="LINE"><line class="cls-1" x1="149.7061" y1="56.8939" x2="349.6545" y2="56.8939"/></g><g id="ARC-8" data-name="ARC"><path class="cls-1" d="M262.7322,96.9825a28.3467,28.3467,0,0,0,19.1788,7.4731" transform="translate(-132.2049 -47.5617)"/></g><g id="ARC-9" data-name="ARC"><path class="cls-1" d="M262.7322,96.9825a17.5749,17.5749,0,0,0-23.7816,0" transform="translate(-132.2049 -47.5617)"/></g><g id="ARC-10" data-name="ARC"><path class="cls-1" d="M219.7718,104.4556a28.3465,28.3465,0,0,0,19.1788-7.4731" transform="translate(-132.2049 -47.5617)"/></g><g id="LINE-5" data-name="LINE"><line class="cls-1" x1="28.5475" y1="56.8939" x2="87.5669" y2="56.8939"/></g><g id="ARC-11" data-name="ARC"><path class="cls-1" d="M160.7524,47.7627a28.3465,28.3465,0,1,0,0,56.6929" transform="translate(-132.2049 -47.5617)"/></g><g id="LINE-6" data-name="LINE"><line class="cls-1" x1="349.6167" y1="0.201" x2="28.5475" y2="0.201"/></g><g id="ARC-12" data-name="ARC"><path class="cls-1" d="M501,55.2358a28.3463,28.3463,0,0,0-19.1787-7.4731" transform="translate(-132.2049 -47.5617)"/></g><g id="ARC-13" data-name="ARC"><path class="cls-1" d="M501,55.2358a17.5748,17.5748,0,0,0,11.8909,4.6333" transform="translate(-132.2049 -47.5617)"/></g><g id="LINE-7" data-name="LINE"><line class="cls-1" x1="380.7241" y1="12.3074" x2="380.6863" y2="12.3074"/></g><g id="ARC-14" data-name="ARC"><path class="cls-1" d="M512.929,59.8691A17.5745,17.5745,0,0,0,524.82,55.2358" transform="translate(-132.2049 -47.5617)"/></g><g id="ARC-15" data-name="ARC"><path class="cls-1" d="M543.9986,47.7627A28.3465,28.3465,0,0,0,524.82,55.2358" transform="translate(-132.2049 -47.5617)"/></g><g id="LINE-8" data-name="LINE"><line class="cls-1" x1="732.9007" y1="0.201" x2="411.7937" y2="0.201"/></g><g id="ARC-16" data-name="ARC"><path class="cls-1" d="M865.1056,104.4556a28.3465,28.3465,0,1,0,0-56.6929" transform="translate(-132.2049 -47.5617)"/></g><g id="LINE-9" data-name="LINE"><line class="cls-1" x1="674.2442" y1="56.8939" x2="732.9007" y2="56.8939"/></g><g id="ARC-17" data-name="ARC"><path class="cls-1" d="M787.27,96.9825a28.3465,28.3465,0,0,0,19.1788,7.4731" transform="translate(-132.2049 -47.5617)"/></g></svg>